<?xml version="1.0" encoding="UTF-8" standalone="no"?>
<!-- Created with Inkscape (http://www.inkscape.org/) -->

<svg
   width="107.125mm"
   height="56.689999mm"
   viewBox="0 0 107.125 56.689999"
   version="1.1"
   id="svg5"
   inkscape:version="1.1.1 (3bf5ae0d25, 2021-09-20, custom)"
   sodipodi:docname="card.svg"
   xmlns:inkscape="http://www.inkscape.org/namespaces/inkscape"
   xmlns:sodipodi="http://sodipodi.sourceforge.net/DTD/sodipodi-0.dtd"
   xmlns="http://www.w3.org/2000/svg"
   xmlns:svg="http://www.w3.org/2000/svg">
  <sodipodi:namedview
     id="namedview7"
     pagecolor="#505050"
     bordercolor="#ffffff"
     borderopacity="1"
     inkscape:pageshadow="0"
     inkscape:pageopacity="0"
     inkscape:pagecheckerboard="1"
     inkscape:document-units="mm"
     showgrid="false"
     inkscape:zoom="1.0824912"
     inkscape:cx="160.27844"
     inkscape:cy="157.50705"
     inkscape:window-width="1366"
     inkscape:window-height="708"
     inkscape:window-x="0"
     inkscape:window-y="32"
     inkscape:window-maximized="1"
     inkscape:current-layer="layer1" />
  <defs
     id="defs2" />
  <g
     inkscape:label="Capa 1"
     inkscape:groupmode="layer"
     id="layer1">
    <path
       style="fill:#ffffff;stroke:#000000;stroke-width:0.240441px;stroke-linecap:butt;stroke-linejoin:miter;stroke-opacity:1"
       d="m 0.12022051,9.385373 c 0,0 3.2e-4,-9.26503 9.74024999,-9.264765 27.3900005,0 58.4145405,-3.88e-4 87.4041605,-3.88e-4 9.893569,3.88e-4 9.740239,9.265383 9.740239,9.265383 v 37.918329 c 0,0 -4.1e-4,9.26463 -9.740239,9.26501 -28.58601,8.9e-4 -87.4041605,1.5e-4 -87.4041605,1.5e-4 0,0 -9.73992999,-1.5e-4 -9.74024999,-9.26539 l 3.2e-4,-37.918329"
       id="path1330-3-6"
       sodipodi:nodetypes="cccccsccc" />
    <g
       aria-label="Para: studiante@trauma.do"
       transform="scale(1.0700642,0.93452337)"
       id="text6589"
       style="font-size:5.07085px;line-height:1.25;stroke-width:0.126771">
      <path
         id="path922"
         d="m 74.323661,2.9708041 q -0.366448,0 -0.579384,0.2872161 -0.212936,0.2847401 -0.212936,0.7824163 0,0.4976761 0.21046,0.7848922 0.212936,0.2847402 0.58186,0.2847402 0.363972,0 0.576908,-0.2872162 0.212936,-0.2872161 0.212936,-0.7824162 0,-0.4927242 -0.212936,-0.7799403 -0.212936,-0.2896921 -0.576908,-0.2896921 z m 0,-0.3862562 q 0.59424,0 0.933452,0.3862562 0.339212,0.3862561 0.339212,1.0696324 0,0.6809002 -0.339212,1.0696324 -0.339212,0.3862561 -0.933452,0.3862561 -0.596716,0 -0.935928,-0.3862561 -0.336737,-0.3887322 -0.336737,-1.0696324 0,-0.6833763 0.336737,-1.0696324 0.339212,-0.3862562 0.935928,-0.3862562 z M 71.855093,3.0723201 V 1.5718635 h 0.455585 V 5.424521 H 71.855093 V 5.0085528 q -0.143608,0.2476001 -0.363972,0.3689242 -0.217888,0.118848 -0.524912,0.118848 -0.502628,0 -0.819556,-0.4011122 -0.314452,-0.4011121 -0.314452,-1.0547763 0,-0.6536643 0.314452,-1.0547764 0.316928,-0.4011122 0.819556,-0.4011122 0.307024,0 0.524912,0.1213241 0.220364,0.118848 0.363972,0.3664481 z m -1.552452,0.9681164 q 0,0.5026281 0.205508,0.7898442 0.207984,0.2847402 0.56948,0.2847402 0.361496,0 0.56948,-0.2847402 0.207984,-0.2872161 0.207984,-0.7898442 0,-0.5026282 -0.207984,-0.7873683 -0.207984,-0.2872161 -0.56948,-0.2872161 -0.361496,0 -0.56948,0.2872161 -0.205508,0.2847401 -0.205508,0.7873683 z m -1.819862,0.7551802 h 0.522436 V 5.424521 H 68.482779 Z M 66.571304,4.0305324 q -0.552148,0 -0.765084,0.1262761 -0.212936,0.126276 -0.212936,0.4308242 0,0.242648 0.158464,0.3862561 0.16094,0.1411321 0.435776,0.1411321 0.378828,0 0.60662,-0.2674081 0.230268,-0.2698841 0.230268,-0.7155643 V 4.0305324 Z m 0.908692,-0.188176 V 5.424521 H 67.024412 V 5.0036008 Q 66.868424,5.2561529 66.63568,5.377477 66.402936,5.496325 66.0662,5.496325 q -0.425872,0 -0.678424,-0.2376961 -0.250077,-0.2401721 -0.250077,-0.6412842 0,-0.4679642 0.311977,-0.7056603 0.314452,-0.2376961 0.935928,-0.2376961 h 0.638808 v -0.044568 q 0,-0.3144521 -0.207984,-0.4852962 -0.205508,-0.17332 -0.579384,-0.17332 -0.237696,0 -0.463012,0.056948 -0.225316,0.056948 -0.4333,0.170844 V 2.777676 q 0.250076,-0.096564 0.485296,-0.1436081 0.23522,-0.04952 0.45806,-0.04952 0.601668,0 0.898788,0.3119761 0.29712,0.3119761 0.29712,0.9458324 z M 62.530471,3.1837401 q 0.170844,-0.3070241 0.408541,-0.4531081 0.237696,-0.1460841 0.559576,-0.1460841 0.4333,0 0.66852,0.3045481 0.23522,0.3020721 0.23522,0.8616483 V 5.424521 h -0.45806 V 3.7656003 q 0,-0.3986361 -0.141132,-0.5917642 -0.141132,-0.193128 -0.430824,-0.193128 -0.354068,0 -0.559577,0.23522 -0.205508,0.2352201 -0.205508,0.6412843 V 5.424521 h -0.45806 V 3.7656003 q 0,-0.4011121 -0.141132,-0.5917642 -0.141132,-0.193128 -0.435776,-0.193128 -0.349116,0 -0.554624,0.237696 -0.205508,0.2352201 -0.205508,0.6388083 V 5.424521 h -0.45806 V 2.6513999 h 0.45806 v 0.4308242 q 0.155988,-0.2550281 0.373876,-0.3763521 0.217888,-0.1213241 0.517484,-0.1213241 0.302072,0 0.512532,0.1535121 0.212936,0.153512 0.314452,0.4456801 z M 57.110506,4.3301286 V 2.6513999 h 0.455585 v 1.6613967 q 0,0.3936841 0.153512,0.5917642 0.153512,0.195604 0.460536,0.195604 0.368924,0 0.58186,-0.23522 0.215412,-0.2352201 0.215412,-0.6412843 V 2.6513999 h 0.455584 V 5.424521 H 58.977411 V 4.9986488 q -0.165892,0.2525521 -0.386256,0.3763522 -0.217888,0.121324 -0.50758,0.121324 -0.477868,0 -0.725468,-0.2971201 -0.247601,-0.2971201 -0.247601,-0.8690763 z m 1.146389,-1.7455807 z m -2.94644,1.4459845 q -0.552148,0 -0.765084,0.1262761 -0.212936,0.126276 -0.212936,0.4308242 0,0.242648 0.158464,0.3862561 0.16094,0.1411321 0.435776,0.1411321 0.378828,0 0.60662,-0.2674081 0.230268,-0.2698841 0.230268,-0.7155643 V 4.0305324 Z m 0.908692,-0.188176 V 5.424521 H 55.763563 V 5.0036008 q -0.155988,0.2525521 -0.388732,0.3738762 -0.232744,0.118848 -0.56948,0.118848 -0.425872,0 -0.678424,-0.2376961 -0.250077,-0.2401721 -0.250077,-0.6412842 0,-0.4679642 0.311977,-0.7056603 0.314452,-0.2376961 0.935928,-0.2376961 h 0.638808 v -0.044568 q 0,-0.3144521 -0.207984,-0.4852962 -0.205508,-0.17332 -0.579384,-0.17332 -0.237696,0 -0.463012,0.056948 -0.225316,0.056948 -0.4333,0.170844 V 2.777676 q 0.250076,-0.096564 0.485296,-0.1436081 0.23522,-0.04952 0.45806,-0.04952 0.601668,0 0.898788,0.3119761 0.29712,0.3119761 0.29712,0.9458324 z M 53.572302,3.0772721 q -0.07676,-0.044568 -0.168368,-0.064376 -0.08914,-0.022284 -0.19808,-0.022284 -0.386256,0 -0.59424,0.2525521 -0.205508,0.250076 -0.205508,0.7205162 V 5.424521 H 51.948045 V 2.6513999 h 0.458061 V 3.0822241 Q 52.549714,2.829672 52.779982,2.708348 53.01025,2.5845479 53.339558,2.5845479 q 0.04704,0 0.103992,0.00743 0.05695,0.00495 0.126276,0.017332 z M 50.427778,1.8640316 v 0.7873683 h 0.938404 v 0.3540682 h -0.938404 v 1.5054085 q 0,0.3392122 0.09161,0.4357762 0.09409,0.096564 0.378828,0.096564 H 51.36618 V 5.424521 h -0.467964 q -0.527388,0 -0.727944,-0.1956041 Q 49.969718,5.0308368 49.969718,4.5108766 V 3.0054681 h -0.33426 V 2.6513999 h 0.33426 V 1.8640316 Z M 46.31514,4.0949085 q 0,0.3540681 0.175796,0.5571002 0.175796,0.2005561 0.48282,0.2005561 0.304548,0 0.477868,-0.2030321 0.175796,-0.2030321 0.175796,-0.5546242 0,-0.3466402 -0.178272,-0.5496722 -0.178272,-0.2055081 -0.480344,-0.2055081 -0.299596,0 -0.477868,0.2030321 -0.175796,0.203032 -0.175796,0.5521482 z m 1.34942,0.7403242 q -0.14856,0.1906521 -0.341688,0.2822642 -0.190652,0.089136 -0.44568,0.089136 -0.425872,0 -0.69328,-0.3070241 -0.264932,-0.3095001 -0.264932,-0.8047003 0,-0.4952002 0.267408,-0.8047003 0.267408,-0.3095001 0.690804,-0.3095001 0.255028,0 0.448156,0.094088 0.193128,0.091612 0.339212,0.2797881 V 3.0302281 h 0.354069 v 1.8223367 q 0.361496,-0.054472 0.564528,-0.3293082 0.205508,-0.2773121 0.205508,-0.7155642 0,-0.2649321 -0.07923,-0.4976762 -0.07676,-0.2327441 -0.23522,-0.4308242 -0.257504,-0.3243561 -0.628905,-0.4952002 -0.368924,-0.17332 -0.8047,-0.17332 -0.304548,0 -0.584336,0.081708 -0.279788,0.079232 -0.517484,0.2376961 -0.388732,0.2525521 -0.609096,0.6635682 -0.217889,0.4085402 -0.217889,0.8864084 0,0.3936841 0.141133,0.7378482 0.143608,0.3441642 0.413492,0.6066203 0.25998,0.2575041 0.601668,0.3912081 0.341688,0.1361801 0.73042,0.1361801 0.319404,0 0.626428,-0.1089441 0.309501,-0.106468 0.567005,-0.3070241 l 0.22284,0.2748361 q -0.3095,0.2401721 -0.675949,0.3664482 -0.363972,0.128752 -0.740324,0.128752 -0.45806,0 -0.864124,-0.1634161 Q 45.728328,5.9816212 45.4114,5.6721211 45.094471,5.3626209 44.928579,4.9565568 44.762687,4.5480166 44.762687,4.0800525 q 0,-0.4506322 0.168368,-0.8591724 0.168368,-0.4085401 0.480345,-0.7180402 0.319404,-0.3144521 0.737848,-0.4803442 0.418444,-0.1683681 0.886408,-0.1683681 0.524912,0 0.973069,0.2154121 0.450632,0.2154121 0.75518,0.6115722 0.1857,0.2426481 0.282264,0.5273882 0.09904,0.2847401 0.09904,0.5892883 0,0.6511882 -0.393684,1.0275403 -0.393684,0.3763522 -1.086965,0.3912082 z M 44.158546,3.9240644 v 0.2228401 h -2.094697 q 0.02971,0.4704402 0.282264,0.7180403 0.255028,0.2451241 0.708136,0.2451241 0.262456,0 0.50758,-0.064376 0.247601,-0.064376 0.490249,-0.193128 V 5.283389 q -0.245124,0.1039921 -0.502629,0.1584641 -0.257504,0.054472 -0.522436,0.054472 -0.663568,0 -1.0523,-0.3862561 -0.386256,-0.3862562 -0.386256,-1.0448724 0,-0.6809003 0.366448,-1.0795364 0.368924,-0.4011122 0.992876,-0.4011122 0.559576,0 0.883933,0.3614961 0.326832,0.3590202 0.326832,0.9780203 z m -0.455584,-0.133704 q -0.005,-0.3738762 -0.210461,-0.5967163 -0.203032,-0.22284 -0.539768,-0.22284 -0.381304,0 -0.611572,0.215412 -0.227792,0.2154121 -0.262456,0.6066203 z M 40.248941,1.8640316 v 0.7873683 h 0.938404 v 0.3540682 h -0.938404 v 1.5054085 q 0,0.3392122 0.09161,0.4357762 0.09409,0.096564 0.378828,0.096564 h 0.467964 V 5.424521 h -0.467964 q -0.527388,0 -0.727944,-0.1956041 Q 39.790881,5.0308368 39.790881,4.5108766 V 3.0054681 h -0.33426 V 2.6513999 h 0.33426 V 1.8640316 Z M 38.889614,3.7507443 V 5.424521 H 38.43403 V 3.7656003 q 0,-0.3936841 -0.153512,-0.5892882 -0.153512,-0.195604 -0.460537,-0.195604 -0.368924,0 -0.58186,0.23522 -0.212936,0.2352201 -0.212936,0.6412843 V 5.424521 h -0.45806 V 2.6513999 h 0.45806 v 0.4308242 q 0.163416,-0.2500761 0.38378,-0.3738761 0.22284,-0.1238001 0.512533,-0.1238001 0.477868,0 0.722992,0.2971201 0.245124,0.2946441 0.245124,0.8690763 z m -4.152252,0.2797881 q -0.552149,0 -0.765085,0.1262761 -0.212936,0.126276 -0.212936,0.4308242 0,0.242648 0.158464,0.3862561 0.16094,0.1411321 0.435776,0.1411321 0.378829,0 0.606621,-0.2674081 Q 35.19047,4.5777287 35.19047,4.1320485 V 4.0305324 Z m 0.908692,-0.188176 V 5.424521 H 35.19047 V 5.0036008 q -0.155988,0.2525521 -0.388732,0.3738762 -0.232744,0.118848 -0.569481,0.118848 -0.425872,0 -0.678424,-0.2376961 -0.250076,-0.2401721 -0.250076,-0.6412842 0,-0.4679642 0.311976,-0.7056603 0.314452,-0.2376961 0.935929,-0.2376961 h 0.638808 v -0.044568 q 0,-0.3144521 -0.207984,-0.4852962 -0.205508,-0.17332 -0.579385,-0.17332 -0.237696,0 -0.463012,0.056948 -0.225316,0.056948 -0.4333,0.170844 V 2.777676 q 0.250076,-0.096564 0.485296,-0.1436081 0.23522,-0.04952 0.45806,-0.04952 0.601669,0 0.898789,0.3119761 0.29712,0.3119761 0.29712,0.9458324 z M 32.068233,2.6513999 h 0.455584 V 5.424521 h -0.455584 z m 0,-1.0795364 h 0.455584 V 2.1487717 H 32.068233 Z M 30.674244,3.0723201 V 1.5718635 h 0.455584 V 5.424521 H 30.674244 V 5.0085528 q -0.143608,0.2476001 -0.363972,0.3689242 -0.217888,0.118848 -0.524912,0.118848 -0.502628,0 -0.819556,-0.4011122 -0.314452,-0.4011121 -0.314452,-1.0547763 0,-0.6536643 0.314452,-1.0547764 0.316928,-0.4011122 0.819556,-0.4011122 0.307024,0 0.524912,0.1213241 0.220364,0.118848 0.363972,0.3664481 z m -1.552452,0.9681164 q 0,0.5026281 0.205508,0.7898442 0.207984,0.2847402 0.56948,0.2847402 0.361496,0 0.56948,-0.2847402 0.207984,-0.2872161 0.207984,-0.7898442 0,-0.5026282 -0.207984,-0.7873683 -0.207984,-0.2872161 -0.56948,-0.2872161 -0.361496,0 -0.56948,0.2872161 -0.205508,0.2847401 -0.205508,0.7873683 z M 25.588538,4.3301286 V 2.6513999 h 0.455584 v 1.6613967 q 0,0.3936841 0.153512,0.5917642 0.153512,0.195604 0.460536,0.195604 0.368924,0 0.58186,-0.23522 0.215412,-0.2352201 0.215412,-0.6412843 V 2.6513999 h 0.455584 V 5.424521 H 27.455442 V 4.9986488 q -0.165892,0.2525521 -0.386256,0.3763522 -0.217888,0.121324 -0.50758,0.121324 -0.477868,0 -0.725468,-0.2971201 -0.2476,-0.2971201 -0.2476,-0.8690763 z m 1.146388,-1.7455807 z m -2.63694,-0.7205163 v 0.7873683 h 0.938404 v 0.3540682 h -0.938404 v 1.5054085 q 0,0.3392122 0.09161,0.4357762 0.09409,0.096564 0.378828,0.096564 H 25.03639 V 5.424521 h -0.467964 q -0.527388,0 -0.727944,-0.1956041 Q 23.639926,5.0308368 23.639926,4.5108766 V 3.0054681 h -0.33426 V 2.6513999 h 0.33426 V 1.8640316 Z M 22.773325,2.733108 v 0.4308241 q -0.193128,-0.09904 -0.401112,-0.14856 -0.207984,-0.04952 -0.430824,-0.04952 -0.339212,0 -0.510056,0.103992 -0.168369,0.103992 -0.168369,0.3119761 0,0.1584641 0.121325,0.2500761 0.121324,0.089136 0.487772,0.1708441 l 0.155988,0.034664 q 0.485296,0.103992 0.688328,0.2946441 0.205508,0.1881761 0.205508,0.5273882 0,0.3862561 -0.307024,0.6115722 -0.304548,0.2253161 -0.839364,0.2253161 -0.22284,0 -0.465489,-0.044568 -0.240172,-0.042092 -0.50758,-0.1287521 V 4.8525648 q 0.252552,0.131228 0.497676,0.19808 0.245125,0.064376 0.485297,0.064376 0.32188,0 0.4952,-0.1089441 0.17332,-0.11142 0.17332,-0.3119761 0,-0.1857001 -0.126276,-0.2847401 -0.1238,-0.09904 -0.547196,-0.1906521 l -0.158464,-0.03714 q -0.423397,-0.089136 -0.611573,-0.27236 -0.188176,-0.1857001 -0.188176,-0.5075802 0,-0.3912081 0.277312,-0.6041442 0.277312,-0.2129361 0.787369,-0.2129361 0.252552,0 0.475392,0.03714 0.22284,0.03714 0.411016,0.1114201 z m -4.97181,2.0625087 h 0.522436 V 5.424521 h -0.522436 z m 0,-1.9931807 h 0.522436 v 0.6289042 h -0.522436 z m -1.963468,1.2280964 q -0.552149,0 -0.765085,0.1262761 -0.212936,0.126276 -0.212936,0.4308242 0,0.242648 0.158464,0.3862561 0.16094,0.1411321 0.435777,0.1411321 0.378828,0 0.60662,-0.2674081 0.230268,-0.2698841 0.230268,-0.7155643 V 4.0305324 Z m 0.908692,-0.188176 V 5.424521 H 16.291155 V 5.0036008 q -0.155988,0.2525521 -0.388732,0.3738762 -0.232744,0.118848 -0.56948,0.118848 -0.425873,0 -0.678425,-0.2376961 -0.250076,-0.2401721 -0.250076,-0.6412842 0,-0.4679642 0.311976,-0.7056603 0.314452,-0.2376961 0.935929,-0.2376961 h 0.638808 v -0.044568 q 0,-0.3144521 -0.207984,-0.4852962 -0.205508,-0.17332 -0.579384,-0.17332 -0.237697,0 -0.463013,0.056948 -0.225316,0.056948 -0.4333,0.170844 V 2.777676 q 0.250076,-0.096564 0.485296,-0.1436081 0.235221,-0.04952 0.458061,-0.04952 0.601668,0 0.898788,0.3119761 0.29712,0.3119761 0.29712,0.9458324 z M 14.099894,3.0772721 q -0.07676,-0.044568 -0.168368,-0.064376 -0.08914,-0.022284 -0.19808,-0.022284 -0.386257,0 -0.594241,0.2525521 -0.205508,0.250076 -0.205508,0.7205162 V 5.424521 h -0.45806 V 2.6513999 h 0.45806 V 3.0822241 Q 13.077305,2.829672 13.307573,2.708348 13.537842,2.5845479 13.86715,2.5845479 q 0.04704,0 0.103992,0.00743 0.05695,0.00495 0.126276,0.017332 z m -3.454022,0.9532603 q -0.552148,0 -0.765084,0.1262761 -0.2129361,0.126276 -0.2129361,0.4308242 0,0.242648 0.1584641,0.3862561 0.16094,0.1411321 0.435776,0.1411321 0.378828,0 0.60662,-0.2674081 Q 11.09898,4.5777287 11.09898,4.1320485 V 4.0305324 Z m 0.908693,-0.188176 V 5.424521 H 11.09898 V 5.0036008 q -0.155988,0.2525521 -0.388732,0.3738762 -0.232744,0.118848 -0.56948,0.118848 -0.4258721,0 -0.6784242,-0.2376961 -0.2500761,-0.2401721 -0.2500761,-0.6412842 0,-0.4679642 0.3119761,-0.7056603 Q 9.838696,3.6739883 10.460172,3.6739883 h 0.638808 v -0.044568 q 0,-0.3144521 -0.207984,-0.4852962 -0.205508,-0.17332 -0.579384,-0.17332 -0.237696,0 -0.463012,0.056948 -0.2253161,0.056948 -0.4333002,0.170844 V 2.777676 Q 9.6653759,2.681112 9.900596,2.6340679 q 0.23522,-0.04952 0.45806,-0.04952 0.601668,0 0.898788,0.3119761 0.297121,0.3119761 0.297121,0.9458324 z M 7.0754789,2.1388677 v 1.3890366 h 0.6289043 q 0.3491161,0 0.5397682,-0.1807481 0.190652,-0.1807481 0.190652,-0.5150082 0,-0.3317841 -0.190652,-0.5125322 Q 8.0534993,2.1388677 7.7043832,2.1388677 Z M 6.5753267,1.7278516 h 1.1290565 q 0.6214762,0 0.9384043,0.2822641 0.3194041,0.2797881 0.3194041,0.8220323 0,0.5471962 -0.3194041,0.8269843 Q 8.3258594,3.9389204 7.7043832,3.9389204 H 7.0754789 V 5.424521 H 6.5753267 Z" />
    </g>
    <path
       style="fill:none;stroke:#000000;stroke-width:0.264118px;stroke-linecap:butt;stroke-linejoin:miter;stroke-opacity:1"
       d="M 0.27888051,6.762198 H 106.59739"
       id="path17059" />
  </g>
</svg>
