<?xml version="1.0" encoding="UTF-8" standalone="no"?>
<!-- Created with Inkscape (http://www.inkscape.org/) -->

<svg
   width="217.405mm"
   height="69.295998mm"
   viewBox="0 0 217.405 69.295998"
   version="1.1"
   id="svg5"
   inkscape:version="1.1.1 (3bf5ae0d25, 2021-09-20, custom)"
   sodipodi:docname="qbook-2.svg"
   xmlns:inkscape="http://www.inkscape.org/namespaces/inkscape"
   xmlns:sodipodi="http://sodipodi.sourceforge.net/DTD/sodipodi-0.dtd"
   xmlns="http://www.w3.org/2000/svg"
   xmlns:svg="http://www.w3.org/2000/svg">
  <sodipodi:namedview
     id="namedview7"
     pagecolor="#505050"
     bordercolor="#ffffff"
     borderopacity="1"
     inkscape:pageshadow="0"
     inkscape:pageopacity="0"
     inkscape:pagecheckerboard="false"
     inkscape:document-units="mm"
     showgrid="false"
     inkscape:zoom="0.78"
     inkscape:cx="302.5641"
     inkscape:cy="72.435897"
     inkscape:window-width="1366"
     inkscape:window-height="708"
     inkscape:window-x="0"
     inkscape:window-y="32"
     inkscape:window-maximized="1"
     inkscape:current-layer="layer1"
     showguides="true"
     inkscape:guide-bbox="true"
     inkscape:snap-global="false"
     inkscape:snap-bbox="false">
    <sodipodi:guide
       position="102.52863,97.98655"
       orientation="1,0"
       id="guide1161" />
  </sodipodi:namedview>
  <defs
     id="defs2" />
  <g
     inkscape:label="Capa 1"
     inkscape:groupmode="layer"
     id="layer1">
    <g
       id="g1185"
       transform="translate(5.9724401,2.1326901)">
      <path
         style="fill:#ffff00;stroke:#808080;stroke-width:0.283608px;stroke-linecap:butt;stroke-linejoin:miter;stroke-opacity:1"
         d="m 51.5674,-1.9462441 c 20.711398,0 68.77269,-0.044642 101.76368,-0.044642 2.27988,0.016223 4.03627,2.33310466 7.35569,5.8810669 12.41927,13.2743382 36.05902,37.3528452 48.9764,51.1029272 4.49945,4.789488 -0.62758,12.027461 -11.71178,12.027917 -32.53164,0.0011 -137.640666,-3.08e-4 -190.4211467,-3.08e-4 -10.3461095,0 -16.3512486,-6.79076 -11.844377,-11.77822 0,0 44.6798507,-47.7583559 47.8923687,-51.0412253 3.212519,-3.28286927 5.830084,-6.1475703 7.989165,-6.1475703 z"
         id="path1330-6-5-3"
         sodipodi:nodetypes="ccssscczcc" />
      <path
         style="fill:#808080;stroke:#808080;stroke-width:0.267461px;stroke-linecap:butt;stroke-linejoin:miter;stroke-opacity:1"
         d="m 54.263825,0.1758305 c 19.5322,0 64.857145,-0.0421 95.969795,-0.0421 2.15008,0.0153 3.80647,2.20027 6.9369,5.54623 11.71218,12.5185695 34.00601,35.2261705 46.18794,48.1933995 4.24327,4.5168 -0.59185,11.342671 -11.04497,11.34311 -30.67946,0.001 -129.80414,-2.9e-4 -179.579578,-2.9e-4 -9.7570568,0 -15.4202948,-6.40413 -11.1700208,-11.10763 0,0 42.1360148,-45.0392495 45.1656298,-48.1352095 3.029614,-3.09596 5.498149,-5.79756 7.534304,-5.79756 z"
         id="path1330-6-5"
         sodipodi:nodetypes="ccssscczcc" />
      <path
         style="fill:#b3b3b3;stroke:#b3b3b3;stroke-width:0.264583px;stroke-linecap:butt;stroke-linejoin:miter;stroke-opacity:1"
         d="m 54.263825,0.1757805 c 19.532476,0 64.858055,-0.0412 95.971145,-0.0412 2.15011,0.015 3.80653,2.15314 6.937,5.42743 11.71235,12.2504295 33.57931,35.1187995 45.76142,47.8082805 4.24333,4.420049 -0.16468,10.45257 -10.61794,10.452999 -30.67991,10e-4 -129.805984,-2.8e-4 -179.582125,-2.8e-4 -9.7571948,0 -14.7020218,-5.8529 -10.4516878,-10.45566 0,0 41.4181198,-44.4885895 44.4477768,-47.5182395 3.029657,-3.02965 5.498227,-5.67338 7.534411,-5.67338 z"
         id="path1330-6"
         sodipodi:nodetypes="ccssscczcc" />
      <path
         id="path981"
         style="font-style:italic;font-size:35.2778px;line-height:1.25;font-family:'Source Code Pro';-inkscape-font-specification:'Source Code Pro Italic';fill:#4d4d4d;stroke-width:0.100022"
         d="m 122.24803,31.87121 1.75295,-3.8e-4 -2.40545,-4.41583 0.47595,-3.22729 8.82223,7.64161 1.81835,-3.69e-4 -10.49087,-8.69483 0.33493,-3.76259 -1.37907,-0.002 -1.03506,5.28646 h -0.0726 l -4.66157,-8.53983 -0.97079,-0.002 z m -8.91976,0.48086 c 3.41896,-5.9e-4 4.02911,-4.49976 1.60098,-9.02296 -1.39609,-2.60088 -3.33351,-4.1255 -5.20422,-4.12739 -2.19552,-0.002 -3.60075,2.29127 -2.70863,6.18618 0.86037,3.755781 3.35307,6.96492 6.31187,6.96417 z m -0.76022,-2.41678 c -1.76895,3.7e-4 -3.38138,-1.99074 -4.13076,-4.67857 -0.82635,-2.9638 0.0543,-4.95416 1.64426,-4.95303 1.28094,0.002 2.57987,1.11483 3.5673,3.13921 1.58245,3.24355 1.14053,6.49239 -1.0808,6.49239 z m -13.121811,2.42056 c 3.427271,-0.002 5.763721,-4.50505 5.064501,-9.03241 -0.40189,-2.60202 -1.75824,-4.12777 -3.63178,-4.12928 -2.198849,-0.002 -4.486305,2.29241 -5.086436,6.18996 -0.578849,3.75918 0.687948,6.97249 3.653715,6.97173 z m 0.165314,-2.41981 c -1.772987,0 -2.625154,-1.993 -2.344993,-4.6831 0.308856,-2.96607 1.954634,-4.95756 3.54711,-4.95643 1.2829,0.002 2.15745,1.11521 2.37081,3.1411 0.34182,3.24619 -1.34667,6.49843 -3.572927,6.49843 z m -18.675228,1.94386 4.74465,-0.002 c 3.550248,-5.8e-4 6.782075,-2.36082 7.807156,-6.73168 0.428957,-1.82893 -0.245042,-2.75663 -1.267289,-3.09422 l 0.02582,-0.0828 c 1.294697,-0.32548 2.750512,-1.45959 3.083637,-2.9929 0.312333,-1.4373 -0.507665,-2.12495 -2.247271,-2.12684 l -2.258234,-0.002 z m 8.175816,-10.53661 2.196161,-3.57848 1.192778,7.8e-4 c 1.442093,0.002 1.863716,0.44571 1.610394,1.38929 -0.343861,1.28116 -1.541138,2.19033 -3.54469,2.18882 z m -4.916204,8.10584 4.105318,-6.73773 1.9084,0.002 c 1.65228,7.8e-4 2.298986,0.9054 1.836572,2.53851 C 91.21281,28.19568 89.192928,29.45 86.545468,29.45 Z m -10.459851,0.52359 c -2.087108,0 -0.983576,-2.40432 1.893904,-5.69209 3.180187,-3.63405 7.02137,-6.68291 8.993015,-6.68064 1.309478,0.002 1.229409,1.09743 -0.03093,3.06926 -2.420109,3.78678 -7.77018,9.30308 -10.855996,9.30347 z m -3.891261,9.8259 c 1.149608,-0.002 2.451223,-0.41093 3.478028,-0.98214 l 1.652995,-3.18003 c -0.787441,0.39012 -1.593575,0.63812 -2.469877,0.6385 -1.546733,0.002 -1.637636,-1.43994 -0.09256,-3.99357 4.627928,-0.79161 10.820993,-7.19024 13.37863,-11.53614 1.539249,-2.61563 1.359266,-4.05972 -0.408921,-4.06162 -2.560852,-0.002 -7.115728,3.20385 -11.11423,7.52291 -3.456521,3.73349 -5.210145,7.09234 -3.544527,7.95463 -3.332453,4.93034 -3.459964,7.63972 -0.879538,7.63746 z" />
    </g>
  </g>
</svg>
