<?xml version="1.0" encoding="UTF-8" standalone="no"?>
<!-- Created with Inkscape (http://www.inkscape.org/) -->

<svg
   width="114.979mm"
   height="63.953999mm"
   viewBox="0 0 114.979 63.953999"
   version="1.1"
   id="svg5"
   inkscape:version="1.1.1 (3bf5ae0d25, 2021-09-20, custom)"
   sodipodi:docname="qbook.svg"
   xmlns:inkscape="http://www.inkscape.org/namespaces/inkscape"
   xmlns:sodipodi="http://sodipodi.sourceforge.net/DTD/sodipodi-0.dtd"
   xmlns="http://www.w3.org/2000/svg"
   xmlns:svg="http://www.w3.org/2000/svg">
  <sodipodi:namedview
     id="namedview7"
     pagecolor="#505050"
     bordercolor="#ffffff"
     borderopacity="1"
     inkscape:pageshadow="0"
     inkscape:pageopacity="0"
     inkscape:pagecheckerboard="false"
     inkscape:document-units="mm"
     showgrid="false"
     inkscape:zoom="1.2646927"
     inkscape:cx="332.88719"
     inkscape:cy="96.07077"
     inkscape:window-width="1366"
     inkscape:window-height="708"
     inkscape:window-x="0"
     inkscape:window-y="32"
     inkscape:window-maximized="1"
     inkscape:current-layer="layer1"
     showguides="true"
     inkscape:guide-bbox="true"
     inkscape:snap-global="false"
     inkscape:snap-bbox="false" />
  <defs
     id="defs2" />
  <g
     inkscape:label="Capa 1"
     inkscape:groupmode="layer"
     id="layer1">
    <g
       id="g26849"
       transform="translate(-8.9481089,-25.440908)">
      <path
         style="fill:#cccccc;stroke:#cccccc;stroke-width:0.264583px;stroke-linecap:butt;stroke-linejoin:miter;stroke-opacity:1"
         d="m 9.0804004,78.808693 c 0,0 3.4e-4,10.453298 10.4537006,10.452999 29.396273,0 62.693313,4.37e-4 93.806379,4.37e-4 10.61826,-4.37e-4 10.4537,-10.453696 10.4537,-10.453696 v -42.78147 c 0,0 -4.4e-4,-10.45284 -10.4537,-10.45327 -30.679894,-10e-4 -93.806379,-1.7e-4 -93.806379,-1.7e-4 0,0 -10.4533606,1.7e-4 -10.4537006,10.4537 l 3.4e-4,42.78147"
         id="path1330"
         sodipodi:nodetypes="cccccsccc" />
      <path
         style="fill:#ffffff;stroke:#000000;stroke-width:0.240441px;stroke-linecap:butt;stroke-linejoin:miter;stroke-opacity:1"
         d="m 12.872022,38.513996 c 0,0 3.16e-4,-9.26503 9.740243,-9.264765 27.390002,0 58.414546,-3.88e-4 87.404165,-3.88e-4 9.89357,3.88e-4 9.74024,9.265383 9.74024,9.265383 v 37.918332 c 0,0 -4.1e-4,9.264624 -9.74024,9.265005 -28.586011,8.86e-4 -87.404165,1.5e-4 -87.404165,1.5e-4 0,0 -9.739927,-1.5e-4 -9.740243,-9.265387 l 3.16e-4,-37.91833"
         id="path1330-3"
         sodipodi:nodetypes="cccccsccc" />
      <text
         xml:space="preserve"
         style="font-style:italic;font-variant:normal;font-weight:normal;font-stretch:normal;font-size:10.5833px;line-height:1.25;font-family:'Source Code Pro';-inkscape-font-specification:'Source Code Pro Italic';fill:#000000;fill-opacity:1;stroke:none;stroke-width:0.264583"
         x="17.623972"
         y="38.209461"
         id="text18800"><tspan
           sodipodi:role="line"
           id="tspan18798"
           style="font-style:italic;font-variant:normal;font-weight:normal;font-stretch:normal;font-family:'Source Code Pro';-inkscape-font-specification:'Source Code Pro Italic';stroke-width:0.264583"
           x="17.623972"
           y="38.209461">QMail</tspan></text>
      <path
         style="fill:none;stroke:#000000;stroke-width:0.265164px;stroke-linecap:butt;stroke-linejoin:miter;stroke-opacity:1"
         d="M 12.860694,40.114556 H 119.85013"
         id="path24667" />
      <path
         style="fill:none;stroke:#000000;stroke-width:0.264583px;stroke-linecap:butt;stroke-linejoin:miter;stroke-opacity:1"
         d="m 30.369203,40.347336 0.0057,45.241776"
         id="path24782" />
      <path
         style="fill:#cccccc;stroke:#000000;stroke-width:0.264583px;stroke-linecap:butt;stroke-linejoin:miter;stroke-opacity:1"
         d="m 30.536324,44.750439 c 89.110536,0 89.389216,0 89.389216,0"
         id="path24784" />
      <path
         style="fill:none;stroke:#000000;stroke-width:0.265519px;stroke-linecap:butt;stroke-linejoin:miter;stroke-opacity:1"
         d="m 30.16249,65.743606 c 89.74245,0 90.02311,0 90.02311,0"
         id="path24784-5" />
      <path
         style="fill:none;stroke:#000000;stroke-width:0.265064px;stroke-linecap:butt;stroke-linejoin:miter;stroke-opacity:1"
         d="m 30.102845,61.906547 c 89.435065,0 89.714755,0 89.714755,0"
         id="path24784-3" />
      <path
         style="fill:none;stroke:#000000;stroke-width:0.264943px;stroke-linecap:butt;stroke-linejoin:miter;stroke-opacity:1"
         d="m 30.463157,58.061694 c 89.352993,0 89.632433,0 89.632433,0"
         id="path24784-3-9" />
      <path
         style="fill:none;stroke:#000000;stroke-width:0.2651px;stroke-linecap:butt;stroke-linejoin:miter;stroke-opacity:1"
         d="m 30.338881,70.250087 c 89.459399,0 89.739169,0 89.739169,0"
         id="path24784-3-9-1" />
      <path
         style="fill:none;stroke:#000000;stroke-width:0.264596px;stroke-linecap:butt;stroke-linejoin:miter;stroke-opacity:1"
         d="m 30.343274,74.503677 c 89.118866,0 89.397576,0 89.397576,0"
         id="path24784-3-9-2" />
      <path
         style="fill:none;stroke:#000000;stroke-width:0.263758px;stroke-linecap:butt;stroke-linejoin:miter;stroke-opacity:1"
         d="m 30.546582,78.239078 c 88.555408,0 88.832348,0 88.832348,0"
         id="path24784-3-9-7" />
      <path
         style="fill:none;stroke:#000000;stroke-width:0.262279px;stroke-linecap:butt;stroke-linejoin:miter;stroke-opacity:1"
         d="m 30.553222,81.934896 c 87.565248,0 87.839098,0 87.839098,0"
         id="path24784-3-9-0" />
      <path
         style="fill:none;stroke:#000000;stroke-width:0.264583px;stroke-linecap:butt;stroke-linejoin:miter;stroke-opacity:1"
         d="m 30.164124,49.532174 c 89.110536,0 89.389216,0 89.389216,0"
         id="path24784-56" />
      <path
         style="fill:none;stroke:#000000;stroke-width:0.265151px;stroke-linecap:butt;stroke-linejoin:miter;stroke-opacity:1"
         d="m 30.281612,54.138975 c 89.493528,0 89.773408,0 89.773408,0"
         id="path24784-2" />
      <path
         style="fill:#ececec;stroke:#cccccc;stroke-width:0.790706"
         d="m 115.44307,160.11795 v -7.90706 h 168.025 168.02501 v 7.90706 7.90706 h -168.02501 -168.025 z"
         id="path25598"
         transform="scale(0.26458333)" />
      <path
         style="fill:#ececec;stroke:#cccccc;stroke-width:0.790706"
         d="m 115.44307,195.69972 v -7.90706 h 168.025 168.02501 v 7.90706 7.90706 h -168.02501 -168.025 z"
         id="path25637"
         transform="scale(0.26458333)" />
      <path
         style="fill:#ececec;stroke:#cccccc;stroke-width:0.790706"
         d="m 115.44307,226.53725 v -6.32565 h 168.025 168.02501 v 6.32565 6.32564 h -168.02501 -168.025 z"
         id="path25676"
         transform="scale(0.26458333)" />
      <path
         style="fill:#ececec;stroke:#cccccc;stroke-width:0.790706"
         d="m 115.44307,256.97943 v -7.51171 h 168.025 168.02501 v 7.51171 7.5117 h -168.02501 -168.025 z"
         id="path25715"
         transform="scale(0.26458333)" />
      <path
         style="fill:#ececec;stroke:#cccccc;stroke-width:0.790706"
         d="m 115.44307,288.60766 v -5.93029 h 168.025 168.02501 v 5.93029 5.9303 h -168.02501 -168.025 z"
         id="path25754"
         transform="scale(0.26458333)" />
      <path
         style="fill:#ececec;stroke:#cccccc;stroke-width:0.790706"
         d="m 115.44307,316.67772 v -6.32564 h 164.6273 164.62731 l -3.00854,3.08102 c -1.6547,1.69456 -4.69324,3.99795 -6.7523,5.11863 -8.55175,4.65445 -0.0204,4.42721 -166.68985,4.43995 l -152.80392,0.0117 z"
         id="path25793"
         transform="scale(0.26458333)" />
      <path
         style="fill:#f2f2f2;stroke:#cccccc;stroke-width:0.790706"
         d="m 115.44307,302.84037 v -5.9303 h 167.57445 167.57447 l -0.63064,2.17445 c -0.34684,1.19594 -1.42865,3.86457 -2.404,5.93029 l -1.77336,3.75585 H 280.61352 115.44307 Z"
         id="path25869"
         transform="scale(0.26458333)" />
      <path
         style="fill:#f2f2f2;stroke:#cccccc;stroke-width:0.790706"
         d="m 115.44307,273.58425 v -7.51171 h 168.025 168.02501 v 7.51171 7.51171 h -168.02501 -168.025 z"
         id="path25945"
         transform="scale(0.26458333)" />
      <path
         style="fill:#f2f2f2;stroke:#cccccc;stroke-width:0.790706"
         d="m 115.44307,241.56066 v -6.32565 h 168.025 168.02501 v 6.32565 6.32565 h -168.02501 -168.025 z"
         id="path25984"
         transform="scale(0.26458333)" />
      <path
         style="fill:#f2f2f2;stroke:#cccccc;stroke-width:0.790706"
         d="m 115.44307,211.90919 v -6.721 h 168.025 168.02501 v 6.721 6.721 h -168.02501 -168.025 z"
         id="path26023"
         transform="scale(0.26458333)" />
      <path
         style="fill:#f2f2f2;stroke:#cccccc;stroke-width:0.790706"
         d="m 115.44307,178.30419 v -7.90706 h 168.025 168.02501 v 7.90706 7.90706 h -168.02501 -168.025 z"
         id="path26062"
         transform="scale(0.26458333)" />
      <path
         style="fill:none;stroke:#000000;stroke-width:0.264583px;stroke-linecap:butt;stroke-linejoin:miter;stroke-opacity:1"
         d="M 13.251318,47.45283 H 30.350139"
         id="path26134" />
      <path
         style="fill:none;stroke:#000000;stroke-width:0.264583px;stroke-linecap:butt;stroke-linejoin:miter;stroke-opacity:1"
         d="m 13.25774,55.804392 c 16.754709,0 16.754709,0 16.754709,0"
         id="path26136" />
      <path
         style="fill:none;stroke:#000000;stroke-width:0.264583px;stroke-linecap:butt;stroke-linejoin:miter;stroke-opacity:1"
         d="M 13.108758,64.090592 H 30.194874"
         id="path26140" />
      <path
         style="fill:none;stroke:#000000;stroke-width:0.264583px;stroke-linecap:butt;stroke-linejoin:miter;stroke-opacity:1"
         d="m 13.09823,72.325287 c 17.021153,0 17.021153,0 17.021153,0"
         id="path26142" />
      <path
         style="fill:none;stroke:#000000;stroke-width:0.264583px;stroke-linecap:butt;stroke-linejoin:miter;stroke-opacity:1"
         d="m 13.549953,79.852376 c 16.630414,0 16.630414,0 16.630414,0"
         id="path26144" />
      <path
         style="fill:#808080;stroke:#cccccc;stroke-width:0.790706"
         d="m 49.814473,165.25754 v -13.04665 h 32.02359 32.023587 v 13.04665 13.04665 H 81.838063 49.814473 Z"
         id="path26220"
         transform="scale(0.26458333)" />
      <path
         style="fill:#808080;stroke:#cccccc;stroke-width:0.790706"
         d="m 49.814473,226.53725 v -15.02342 h 32.03942 32.039417 l -0.10621,15.02342 -0.10621,15.02341 H 81.747682 49.814473 Z"
         id="path26259"
         transform="scale(0.26458333)" />
      <path
         style="fill:#808080;stroke:#cccccc;stroke-width:0.790706"
         d="m 50.856444,299.87522 c -0.348024,-0.54361 -0.762123,-6.59251 -0.92022,-13.442 L 49.648775,273.9796 h 32.106439 32.106436 v 13.442 13.442 H 82.675434 c -24.08436,0 -31.330316,-0.22507 -31.81899,-0.98838 z"
         id="path26298"
         transform="scale(0.26458333)" />
      <path
         style="fill:#b3b3b3;stroke:#cccccc;stroke-width:0.790706"
         d="M 49.814473,194.90901 V 179.8856 h 32.02359 32.023587 v 15.02341 15.02341 H 81.838063 49.814473 Z"
         id="path26565"
         transform="scale(0.26458333)" />
      <path
         style="fill:#b3b3b3;stroke:#cccccc;stroke-width:0.790706"
         d="m 49.814473,257.77013 v -14.62806 h 32.02359 32.023587 v 14.62806 14.62806 H 81.838063 49.814473 Z"
         id="path26604"
         transform="scale(0.26458333)" />
      <path
         style="fill:#b3b3b3;stroke:#cccccc;stroke-width:0.790706"
         d="m 76.481147,321.7653 c -9.623293,-2.33156 -17.69439,-7.6411 -22.046003,-14.50288 -1.236704,-1.95008 -2.248553,-3.83176 -2.248553,-4.1815 0,-0.34975 13.876889,-0.6359 30.837531,-0.6359 h 30.837528 v 10.27917 10.27918 l -16.407145,-0.0659 c -11.146473,-0.0448 -17.871226,-0.4206 -20.973358,-1.1722 z"
         id="path26643"
         transform="scale(0.26458333)" />
      <circle
         style="fill:#000000;stroke:#cccccc;stroke-width:0.264583"
         id="path26726"
         cx="66.389977"
         cy="27.479286"
         r="1.1045328" />
    </g>
  </g>
</svg>
